<mxfile host="65bd71144e">
    <diagram id="7weSf__ynvD_DYCcY9Hp" name="Page-1">
        <mxGraphModel dx="2712" dy="2268" grid="1" gridSize="10" guides="1" tooltips="1" connect="1" arrows="1" fold="1" page="1" pageScale="1" pageWidth="1600" pageHeight="900" background="#ffffff" math="0" shadow="0">
            <root>
                <mxCell id="0"/>
                <mxCell id="1" parent="0"/>
                <mxCell id="11" value="&lt;font style=&quot;font-size: 30px;&quot;&gt;prog_ctr&lt;br&gt;(PC's&lt;br&gt;current&lt;br&gt;value)&lt;/font&gt;" style="edgeStyle=none;html=1;entryX=0;entryY=0.5;entryDx=0;entryDy=0;strokeColor=#000000;strokeWidth=9;fontSize=39;fontColor=#000000;endArrow=classic;endFill=1;" edge="1" parent="1" source="2" target="3">
                    <mxGeometry y="130" relative="1" as="geometry">
                        <mxPoint as="offset"/>
                    </mxGeometry>
                </mxCell>
                <mxCell id="2" value="&lt;font color=&quot;#000000&quot; style=&quot;font-size: 60px;&quot;&gt;PC&lt;br&gt;Reg&lt;br&gt;&lt;/font&gt;" style="whiteSpace=wrap;html=1;fillColor=#fad9d5;strokeColor=#ae4132;" vertex="1" parent="1">
                    <mxGeometry x="80" y="80" width="160" height="740" as="geometry"/>
                </mxCell>
                <mxCell id="12" value="mach_code&lt;br&gt;(Instruction&lt;br&gt;to decode)" style="edgeStyle=none;html=1;labelBackgroundColor=none;strokeColor=#000000;strokeWidth=9;fontSize=30;fontColor=#000000;endArrow=classic;endFill=1;" edge="1" parent="1" source="3" target="8">
                    <mxGeometry y="140" relative="1" as="geometry">
                        <mxPoint as="offset"/>
                    </mxGeometry>
                </mxCell>
                <mxCell id="3" value="&lt;font color=&quot;#000000&quot; style=&quot;font-size: 60px;&quot;&gt;Instruction&lt;br&gt;ROM&lt;br&gt;&lt;/font&gt;" style="whiteSpace=wrap;html=1;fillColor=#fad9d5;strokeColor=#ae4132;" vertex="1" parent="1">
                    <mxGeometry x="400" y="80" width="480" height="740" as="geometry"/>
                </mxCell>
                <mxCell id="13" style="edgeStyle=none;html=1;labelBackgroundColor=none;strokeColor=#000000;strokeWidth=9;fontSize=30;fontColor=#000000;endArrow=classic;endFill=1;" edge="1" parent="1" source="8">
                    <mxGeometry relative="1" as="geometry">
                        <mxPoint x="1480" y="450" as="targetPoint"/>
                    </mxGeometry>
                </mxCell>
                <mxCell id="8" value="&lt;font color=&quot;#000000&quot; style=&quot;font-size: 39px;&quot;&gt;Decoder&lt;br&gt;Logic&lt;br&gt;&lt;/font&gt;" style="whiteSpace=wrap;html=1;fillColor=#fad9d5;strokeColor=#ae4132;" vertex="1" parent="1">
                    <mxGeometry x="1140" y="80" width="160" height="740" as="geometry"/>
                </mxCell>
                <mxCell id="9" value="" style="edgeStyle=none;orthogonalLoop=1;jettySize=auto;html=1;fontSize=39;fontColor=#000000;strokeWidth=9;strokeColor=#000000;endArrow=none;endFill=0;" edge="1" parent="1">
                    <mxGeometry width="80" relative="1" as="geometry">
                        <mxPoint x="1480" y="820" as="sourcePoint"/>
                        <mxPoint x="1480" y="210" as="targetPoint"/>
                        <Array as="points"/>
                    </mxGeometry>
                </mxCell>
                <mxCell id="10" value="Execution" style="edgeLabel;html=1;align=center;verticalAlign=middle;resizable=0;points=[];fontSize=39;fontColor=#000000;" vertex="1" connectable="0" parent="9">
                    <mxGeometry x="-0.0164" y="6" relative="1" as="geometry">
                        <mxPoint y="-380" as="offset"/>
                    </mxGeometry>
                </mxCell>
            </root>
        </mxGraphModel>
    </diagram>
</mxfile>